<svg width="255" height="58" viewBox="0 0 255 58" fill="none" xmlns="http://www.w3.org/2000/svg">
<path fill-rule="evenodd" clip-rule="evenodd" d="M79.76 28.64C83.99 29.02 86.68 28.64 91.29 26.71C98.4 23.63 103.4 16.14 102.25 11.33C101.68 8.83002 98.79 8.07003 96.29 7.87003C93.99 7.68003 91.49 7.49002 87.64 7.68002L79.76 28.64ZM0 34.98H14.21L33.24 12.69L38.05 34.98H82.64C91.16 34.98 97.63 34.6 102.64 32.68C109.93 30.18 115.71 26.14 119.17 19.41C122.81 12.87 122.44 8.27002 119.94 4.61002C117.45 1.15002 111.67 0 103.6 0H66.12L67.28 7.30002L58.05 32.68L51.33 0.140015C51.33 0.140015 40.01 0.0300146 37.29 0.140015C34.57 0.240015 31.79 1.00003 28.64 4.37003L0 34.98Z" fill="black"/>
<path fill-rule="evenodd" clip-rule="evenodd" d="M116.85 34.98H137.74L150.85 0H130.16L117.02 34.98H116.85Z" fill="black"/>
<path fill-rule="evenodd" clip-rule="evenodd" d="M142.73 34.98L154.96 2.91L155.74 0H196.53C204.9 0 208.8 6.49001 203.14 13.01L195.75 20.78L201.2 31.08L203.53 34.99H180.99L174.78 20.21L186.82 7L174.39 7.39001L163.71 34.98H142.73Z" fill="black"/>
<path fill-rule="evenodd" clip-rule="evenodd" d="M194.21 34.98H208.88L228.64 11.9L233.33 34.98H254.26L246.79 0.170013H232.55C230.02 0.170013 227.03 0.750017 223.74 4.08002L194.21 34.98Z" fill="black"/>
<path d="M68.71 43.96V46.43H62.26V49.52H67.85V51.81H62.26V57.32H59.32V43.96H68.71Z" fill="black"/>
<path d="M92.31 43.96H89.37V57.32H92.31V43.96Z" fill="black"/>
<path d="M116.77 43.96L122.35 52.93H122.38V43.96H125.14V57.32H122.2L116.64 48.38H116.61V57.32H113.85V43.96H116.77Z" fill="black"/>
<path d="M153.34 43.96L158.34 57.32H155.29L154.28 54.35H149.29L148.24 57.32H145.28L150.33 43.96H153.34ZM153.51 52.16L151.83 47.25H151.79L150.05 52.16H153.51Z" fill="black"/>
<path d="M181.37 43.96L186.95 52.93H186.99V43.96H189.74V57.32H186.8L181.24 48.38H181.21V57.32H178.45V43.96H181.37Z" fill="black"/>
<path d="M219.85 47.53C219.68 47.25 219.46 47.01 219.2 46.79C218.94 46.58 218.64 46.41 218.31 46.29C217.98 46.17 217.63 46.11 217.27 46.11C216.61 46.11 216.04 46.24 215.58 46.5C215.12 46.75 214.75 47.1 214.45 47.53C214.17 47.96 213.96 48.45 213.83 49C213.7 49.55 213.63 50.11 213.63 50.7C213.63 51.26 213.7 51.81 213.83 52.34C213.96 52.87 214.17 53.35 214.45 53.77C214.74 54.19 215.11 54.53 215.58 54.79C216.04 55.05 216.6 55.17 217.27 55.17C218.17 55.17 218.87 54.89 219.37 54.34C219.87 53.79 220.19 53.07 220.3 52.17H223.15C223.07 53.01 222.88 53.76 222.57 54.44C222.25 55.11 221.84 55.69 221.33 56.16C220.82 56.63 220.22 57 219.54 57.24C218.85 57.49 218.1 57.61 217.27 57.61C216.24 57.61 215.32 57.43 214.51 57.08C213.69 56.73 213 56.24 212.44 55.61C211.88 54.99 211.45 54.25 211.15 53.41C210.85 52.57 210.7 51.66 210.7 50.69C210.7 49.69 210.85 48.76 211.15 47.91C211.45 47.06 211.88 46.31 212.44 45.68C213 45.04 213.69 44.54 214.51 44.18C215.33 43.82 216.25 43.64 217.27 43.64C218 43.64 218.7 43.75 219.36 43.96C220.01 44.17 220.6 44.48 221.12 44.89C221.64 45.3 222.07 45.8 222.4 46.4C222.74 47 222.95 47.68 223.04 48.46H220.19C220.14 48.12 220.03 47.81 219.85 47.53Z" fill="black"/>
<path d="M254.1 43.96V46.43H247.04V49.29H253.52V51.58H247.04V54.86H254.25V57.32H244.11V43.96H254.1Z" fill="black"/>
<path fill-rule="evenodd" clip-rule="evenodd" d="M28.08 18.74L15.41 33.59L61.88 18.74H28.08Z" fill="white"/>
</svg>
